[img]http://img607.imageshack.us/img607/1971/perfectyi.jpg[/img]
[code]
Perfect.Sense.2011.R5.DVDRip.XVID.AC3.HQ.Hive-CM8

Thx Hive

CM8 Doing It Right The First Time 


Source: Russian DVD-9
Poslednjaja.ljubov'.na.Zemle.2011.D.DVD.ELEKTRI4KA
(had English audio on it)

Encode:
DVD had great quality, did the usual, sharpness, rgb and denoise
got very nice
enjoy

Video: 720x304 @bitrate 1700 2pass
Audio: English AC3 5.1 @256 (as on dvd)
Sample: Yes, included

 
http://www.imdb.com/title/tt1439572/


General
Complete name                  : Perfect.Sense.2011.R5.DVDRip.XVID.AC3.HQ.Hive-CM8.avi
Format                         : AVI
Format/Info                    : Audio Video Interleave
File size                      : 1.21 GiB
Duration                       : 1h 28mn
Overall bit rate               : 1 965 Kbps
Writing application            : Nandub v1.0rc2
Writing library                : Nandub build 1853/release

Video
ID                             : 0
Format                         : MPEG-4 Visual
Format profile                 : Advanced Simple@L5
Format settings, BVOP          : 2
Format settings, QPel          : Yes
Format settings, GMC           : No warppoints
Format settings, Matrix        : Default (H.263)
Muxing mode                    : Packed bitstream
Codec ID                       : XVID
Codec ID/Hint                  : XviD
Duration                       : 1h 28mn
Bit rate                       : 1 700 Kbps
Width                          : 720 pixels
Height                         : 304 pixels
Display aspect ratio           : 2.35:1
Frame rate                     : 25.000 fps
Color space                    : YUV
Chroma subsampling             : 4:2:0
Bit depth                      : 8 bits
Scan type                      : Progressive
Compression mode               : Lossy
Bits/(Pixel*Frame)             : 0.311
Stream size                    : 1.05 GiB (86%)
Writing library                : XviD 1.2.1 (UTC 2008-12-04)

Audio
ID                             : 1
Format                         : AC-3
Format/Info                    : Audio Coding 3
Mode extension                 : CM (complete main)
Codec ID                       : 2000
Duration                       : 1h 28mn
Bit rate mode                  : Constant
Bit rate                       : 256 Kbps
Channel(s)                     : 6 channels
Channel positions              : Front: L C R, Side: L R, LFE
Sampling rate                  : 48.0 KHz
Bit depth                      : 16 bits
Compression mode               : Lossy
Stream size                    : 162 MiB (13%)
Alignment                      : Split accross interleaves
Interleave, duration           : 40 ms (1.00 video frame)
Interleave, preload duration   : 500 ms


Plot:
A chef and a scientist fall in love as an epidemic begins to
rob people of their sensory perceptions.


Cast:
Ewan McGregor     ...    Michael
Eva Green         ...    Susan
Connie Nielsen
Stephen Dillane   ...    Samuel
N/A
[/code]
Screens:
[img]http://img40.imageshack.us/img40/9207/32410744.png[/img]
[img]http://img46.imageshack.us/img46/6600/71610086.png[/img]
[img]http://img62.imageshack.us/img62/6926/30890275.png[/img]
[img]http://img705.imageshack.us/img705/4661/67425260.png[/img]